# xmcd
#
# Track frame offsets:
#	150
#	17568
#	40568
#	64565
#	87855
#	101865
#	119785
#	142333
#	160593
#	182778
#
# Disc length: 2808 seconds
#
# Revision: 4294377484
# Processed by: cddbd v1.5.2PL0 Copyright (c) Steve Scherf et al.
# Submitted via: EZCDAudioConverter 8.0.2.1
#
DISCID=840af60a
DTITLE=Various Artist - Tình Ca Hải Ngoại 6. Dạ Vũ Nhạc Trẻ 2
DYEAR=1992
DGENRE=Electronica
TTITLE0=Ngọc Hương - Nàng dáng tiên (Diana)
TTITLE1=Anh Sơn - Tiễn em nơi phi trường (Adieu Jolie Candy)
TTITLE2=Kiều Nga - Đến với em (Comme Toi)
TTITLE3=Ngọc Tuyết - Vũ điệu Chacha (Quantanamera)
TTITLE4=Don Hồ - Thú đau thương (The Godfather)
TTITLE5=Mạnh Duy - Gửi lời nói yêu (I Just Call Ti Say)
TTITLE6=Kiều Nga - Mối chân tình (I Who Have Nothing)
TTITLE7=Lynda Trang Đài - Chiều buồn trên phố (Bambino)
TTITLE8=Anh Sơn - Nỗi đau trong tim (Mal)
TTITLE9=Ngọc Lan - Dại khờ (Stupid Cupid)
EXTD=
EXTT0=
EXTT1=
EXTT2=
EXTT3=
EXTT4=
EXTT5=
EXTT6=
EXTT7=
EXTT8=
EXTT9=
PLAYORDER=
